<?xml version="1.0" encoding="UTF-8" standalone="no"?>
<!-- Created with Inkscape (http://www.inkscape.org/) -->

<svg
   width="27.081999mm"
   height="27.081999mm"
   viewBox="0 0 27.081999 27.081999"
   version="1.1"
   id="svg5"
   inkscape:version="1.1.2 (0a00cf5339, 2022-02-04)"
   sodipodi:docname="icon.svg"
   xmlns:inkscape="http://www.inkscape.org/namespaces/inkscape"
   xmlns:sodipodi="http://sodipodi.sourceforge.net/DTD/sodipodi-0.dtd"
   xmlns="http://www.w3.org/2000/svg"
   xmlns:svg="http://www.w3.org/2000/svg">
  <sodipodi:namedview
     id="namedview7"
     pagecolor="#ffffff"
     bordercolor="#666666"
     borderopacity="1.0"
     inkscape:pageshadow="2"
     inkscape:pageopacity="0.0"
     inkscape:pagecheckerboard="0"
     inkscape:document-units="mm"
     showgrid="false"
     showguides="true"
     inkscape:guide-bbox="true"
     inkscape:zoom="4.3994184"
     inkscape:cx="20.45725"
     inkscape:cy="73.646098"
     inkscape:window-width="2560"
     inkscape:window-height="1531"
     inkscape:window-x="1920"
     inkscape:window-y="32"
     inkscape:window-maximized="1"
     inkscape:current-layer="layer1"
     fit-margin-top="0"
     fit-margin-left="0"
     fit-margin-right="0"
     fit-margin-bottom="0">
    <sodipodi:guide
       position="-35.52494,30.481249"
       orientation="0,-1"
       id="guide7410" />
  </sodipodi:namedview>
  <defs
     id="defs2" />
  <g
     inkscape:label="Ebene 1"
     inkscape:groupmode="layer"
     id="layer1"
     transform="translate(-66.994011,-81.008781)">
    <g
       id="g86949">
      <rect
         style="color:#000000;overflow:visible;fill:#d7e3f4;fill-opacity:1;stroke:none;stroke-width:1.17164;stroke-linecap:round;stroke-linejoin:round;stroke-dashoffset:43.0866;paint-order:stroke markers fill"
         id="rect71269"
         width="27.081999"
         height="27.081999"
         x="66.994011"
         y="81.008781"
         ry="3.9769804" />
      <g
         aria-label="er"
         transform="scale(1.0655953,0.93844257)"
         id="text52556"
         style="font-size:27.3591px;line-height:5%;font-family:Ubuntu;-inkscape-font-specification:Ubuntu;letter-spacing:0px;word-spacing:0px;fill:#afc6e9;stroke-width:1.70995px">
        <path
           id="path85028"
           style="font-weight:bold;-inkscape-font-specification:'Ubuntu Bold';stroke-width:6.4628px"
           d="m 258.75195,346.14648 c -0.89207,0 -1.77945,0.0388 -2.66211,0.11329 v 12.10937 c 0.87858,-0.18845 1.83779,-0.28711 2.88282,-0.28711 1.90991,0 3.48949,0.29082 4.73828,0.87305 1.32224,0.58223 2.38727,1.32672 3.19531,2.23242 0.8815,0.9057 1.50576,1.94101 1.87305,3.10547 0.44074,1.16446 0.69802,2.36066 0.77148,3.58984 h -13.46094 v 9.89844 h 28.99805 c 0.0735,-0.77632 0.14529,-1.65069 0.21875,-2.62109 0.0735,-1.0351 0.11133,-1.97347 0.11133,-2.81446 0,-8.60413 -2.38733,-15.10478 -7.16211,-19.5039 -4.77479,-4.4638 -11.27659,-6.69532 -19.50391,-6.69532 z"
           transform="scale(0.24829627,0.28193876)" />
        <path
           id="path85030"
           style="font-weight:bold;-inkscape-font-specification:'Ubuntu Bold';stroke-width:6.4628px"
           d="m 321.88867,346.4375 c -4.9217,0 -9.4012,0.42071 -13.4414,1.26172 -3.96675,0.77631 -7.4191,1.61774 -10.35743,2.52344 v 27.58984 h 16.41797 v -18.27539 c 0.73458,-0.19413 1.79961,-0.35503 3.19531,-0.48438 1.46917,-0.19413 2.71768,-0.29101 3.7461,-0.29101 2.2772,0 4.40725,0.19386 6.39062,0.58203 1.98338,0.32345 3.70857,0.64723 5.17774,0.9707 l 2.75586,-11.93554 c -0.8815,-0.32346 -1.94653,-0.58326 -3.19532,-0.77735 -1.24879,-0.25877 -2.4973,-0.45264 -3.74609,-0.58203 -1.24879,-0.19407 -2.49926,-0.32398 -3.74805,-0.38867 -1.24879,-0.12939 -2.31381,-0.19336 -3.19531,-0.19336 z"
           transform="scale(0.24829627,0.28193876)" />
      </g>
      <g
         aria-label="cyl"
         transform="scale(1.0611639,0.94236152)"
         id="text26442"
         style="font-size:13.9903px;line-height:5%;font-family:Ubuntu;-inkscape-font-specification:Ubuntu;letter-spacing:0px;word-spacing:0px;fill:#204377;stroke-width:0.874395px">
        <path
           d="m 69.994401,103.37469 q 0,-0.79745 0.251826,-1.49696 0.265815,-0.71351 0.755476,-1.23115 0.48966,-0.53163 1.189175,-0.839417 0.699515,-0.307787 1.594895,-0.307787 0.587592,0 1.077253,0.111922 0.48966,0.09793 0.95134,0.293797 l -0.433699,1.664845 q -0.293797,-0.11192 -0.643554,-0.19586 -0.349758,-0.084 -0.783457,-0.084 -0.92336,0 -1.38504,0.57361 -0.447689,0.5736 -0.447689,1.51095 0,0.99331 0.419709,1.53893 0.433699,0.54562 1.496962,0.54562 0.377738,0 0.811437,-0.0699 0.4337,-0.07 0.797447,-0.22384 l 0.293797,1.70681 q -0.363748,0.1539 -0.90937,0.26582 -0.545621,0.11192 -1.203166,0.11192 -1.007301,0 -1.734797,-0.29379 -0.727495,-0.30779 -1.203166,-0.82543 -0.46168,-0.51764 -0.685524,-1.21716 -0.209855,-0.7135 -0.209855,-1.53893 z"
           style="font-weight:bold;-inkscape-font-specification:'Ubuntu Bold'"
           id="path85003" />
        <path
           d="m 83.984666,99.69524 q -0.629563,2.12653 -1.315088,3.98724 -0.685525,1.86071 -1.496962,3.60949 -0.293796,0.62957 -0.587593,1.06327 -0.293796,0.44769 -0.643553,0.72749 -0.349758,0.2938 -0.797447,0.41971 -0.4337,0.1399 -1.021292,0.1399 -0.489661,0 -0.90937,-0.0979 -0.405719,-0.0839 -0.671534,-0.19586 l 0.363747,-1.66485 q 0.321777,0.11192 0.573603,0.15389 0.251825,0.042 0.531631,0.042 0.559612,0 0.853409,-0.30779 0.307786,-0.2938 0.517641,-0.82543 -0.713506,-1.39903 -1.427011,-3.13383 -0.713505,-1.74878 -1.343069,-3.91728 h 2.210468 q 0.139903,0.54562 0.321777,1.18918 0.195864,0.62956 0.405718,1.2871 0.209855,0.64356 0.419709,1.25913 0.223845,0.61557 0.419709,1.11922 0.181874,-0.50365 0.377738,-1.11922 0.195865,-0.61557 0.377738,-1.25913 0.195865,-0.65754 0.363748,-1.2871 0.181874,-0.64356 0.321777,-1.18918 z"
           style="font-weight:bold;-inkscape-font-specification:'Ubuntu Bold'"
           id="path85005" />
        <path
           id="path85007"
           style="font-weight:bold;-inkscape-font-specification:'Ubuntu Bold';stroke-width:3.3048px"
           d="m 349.68555,342.625 -8.35938,1.19727 v 28.84961 c 0,1.3952 0.14996,2.65765 0.44922,3.7871 0.33667,1.09624 0.93456,2.04258 1.79492,2.83985 0.89778,0.76403 2.09551,1.36305 3.5918,1.79492 1.38444,0.3898 3.13792,0.61467 5.25391,0.67969 v -6.38672 c -0.19575,-0.0514 -0.3764,-0.10989 -0.54102,-0.17383 -0.59852,-0.23253 -1.06568,-0.53108 -1.40234,-0.89648 -0.29927,-0.36543 -0.50497,-0.81421 -0.61719,-1.34571 -0.11222,-0.53152 -0.16992,-1.12859 -0.16992,-1.79297 z"
           transform="scale(0.24933315,0.28076627)" />
      </g>
    </g>
  </g>
</svg>
